<?xml version="1.0" encoding="UTF-8" standalone="no"?>
<!DOCTYPE svg PUBLIC "-//W3C//DTD SVG 1.1//EN"
 "http://www.w3.org/Graphics/SVG/1.1/DTD/svg11.dtd">
<!-- Generated by graphviz version 2.29.20120907.0445 (20120907.0445)
 -->
<!-- Title: %3 Pages: 1 -->
<svg width="488pt" height="1206pt"
 viewBox="0.00 0.00 488.00 1206.00" xmlns="http://www.w3.org/2000/svg" xmlns:xlink="http://www.w3.org/1999/xlink">
<g id="graph0" class="graph" transform="scale(1 1) rotate(0) translate(4 1202)">
<title>%3</title>
<polygon fill="white" stroke="white" points="-4,5 -4,-1202 485,-1202 485,5 -4,5"/>
<g id="clust1" class="cluster"><title>cluster_selection</title>
<polygon fill="none" stroke="black" points="8,-68 8,-1118 472,-1118 472,-68 8,-68"/>
<text text-anchor="middle" x="240" y="-1102.8" font-family="Times,serif" font-size="14.00">selection</text>
</g>
<g id="clust2" class="cluster"><title>cluster_identify_actions</title>
<polygon fill="none" stroke="black" points="183,-740 183,-1087 287,-1087 287,-740 183,-740"/>
<text text-anchor="middle" x="235" y="-1071.8" font-family="Times,serif" font-size="14.00">identify&#45;actions</text>
</g>
<g id="clust3" class="cluster"><title>cluster_track_highlight</title>
<polygon fill="none" stroke="black" points="16,-338 16,-706 210,-706 210,-338 16,-338"/>
<text text-anchor="middle" x="113" y="-690.8" font-family="Times,serif" font-size="14.00">track&#45;highlight</text>
</g>
<g id="clust4" class="cluster"><title>cluster_track_ui_states</title>
<polygon fill="none" stroke="black" points="218,-158 218,-415 464,-415 464,-158 218,-158"/>
<text text-anchor="middle" x="341" y="-399.8" font-family="Times,serif" font-size="14.00">track&#45;ui&#45;states</text>
</g>
<!-- keydowns -->
<g id="node1" class="node"><title>keydowns</title>
<path fill="lightgrey" stroke="black" d="M210.5,-1161C210.5,-1161 259.5,-1161 259.5,-1161 265.5,-1161 271.5,-1167 271.5,-1173 271.5,-1173 271.5,-1185 271.5,-1185 271.5,-1191 265.5,-1197 259.5,-1197 259.5,-1197 210.5,-1197 210.5,-1197 204.5,-1197 198.5,-1191 198.5,-1185 198.5,-1185 198.5,-1173 198.5,-1173 198.5,-1167 204.5,-1161 210.5,-1161"/>
<text text-anchor="middle" x="235" y="-1175.3" font-family="Times,serif" font-size="14.00">keydowns</text>
</g>
<!-- keycodes -->
<g id="node3" class="node"><title>keycodes</title>
<path fill="none" stroke="black" d="M212.5,-1019C212.5,-1019 257.5,-1019 257.5,-1019 263.5,-1019 269.5,-1025 269.5,-1031 269.5,-1031 269.5,-1043 269.5,-1043 269.5,-1049 263.5,-1055 257.5,-1055 257.5,-1055 212.5,-1055 212.5,-1055 206.5,-1055 200.5,-1049 200.5,-1043 200.5,-1043 200.5,-1031 200.5,-1031 200.5,-1025 206.5,-1019 212.5,-1019"/>
<text text-anchor="middle" x="235" y="-1033.3" font-family="Times,serif" font-size="14.00">keycodes</text>
</g>
<!-- keydowns&#45;&gt;keycodes -->
<g id="edge1" class="edge"><title>keydowns&#45;&gt;keycodes</title>
<path fill="none" stroke="black" d="M235,-1160.83C235,-1137.01 235,-1093.66 235,-1065.35"/>
<polygon fill="black" stroke="black" points="238.5,-1065.31 235,-1055.31 231.5,-1065.31 238.5,-1065.31"/>
<text text-anchor="middle" x="254.5" y="-1130.3" font-family="Times,serif" font-size="14.00">mapd*</text>
</g>
<!-- pre_element -->
<g id="node2" class="node"><title>pre_element</title>
<path fill="lightgrey" stroke="black" d="M310,-1C310,-1 372,-1 372,-1 378,-1 384,-7 384,-13 384,-13 384,-25 384,-25 384,-31 378,-37 372,-37 372,-37 310,-37 310,-37 304,-37 298,-31 298,-25 298,-25 298,-13 298,-13 298,-7 304,-1 310,-1"/>
<text text-anchor="middle" x="341" y="-15.3" font-family="Times,serif" font-size="14.00">pre_element</text>
</g>
<!-- keys -->
<g id="node4" class="node"><title>keys</title>
<path fill="none" stroke="black" d="M220,-929C220,-929 250,-929 250,-929 256,-929 262,-935 262,-941 262,-941 262,-953 262,-953 262,-959 256,-965 250,-965 250,-965 220,-965 220,-965 214,-965 208,-959 208,-953 208,-953 208,-941 208,-941 208,-935 214,-929 220,-929"/>
<text text-anchor="middle" x="235" y="-943.3" font-family="Times,serif" font-size="14.00">keys</text>
</g>
<!-- keycodes&#45;&gt;keys -->
<g id="edge2" class="edge"><title>keycodes&#45;&gt;keys</title>
<path fill="none" stroke="black" d="M235,-1018.61C235,-1006.24 235,-989.369 235,-975.22"/>
<polygon fill="black" stroke="black" points="238.5,-975.05 235,-965.05 231.5,-975.05 238.5,-975.05"/>
<text text-anchor="middle" x="254.5" y="-988.3" font-family="Times,serif" font-size="14.00">mapd*</text>
</g>
<!-- known_keys -->
<g id="node5" class="node"><title>known_keys</title>
<path fill="none" stroke="black" d="M203.5,-839C203.5,-839 266.5,-839 266.5,-839 272.5,-839 278.5,-845 278.5,-851 278.5,-851 278.5,-863 278.5,-863 278.5,-869 272.5,-875 266.5,-875 266.5,-875 203.5,-875 203.5,-875 197.5,-875 191.5,-869 191.5,-863 191.5,-863 191.5,-851 191.5,-851 191.5,-845 197.5,-839 203.5,-839"/>
<text text-anchor="middle" x="235" y="-853.3" font-family="Times,serif" font-size="14.00">known_keys</text>
</g>
<!-- keys&#45;&gt;known_keys -->
<g id="edge3" class="edge"><title>keys&#45;&gt;known_keys</title>
<path fill="none" stroke="black" d="M235,-928.614C235,-916.24 235,-899.369 235,-885.22"/>
<polygon fill="black" stroke="black" points="238.5,-885.05 235,-875.05 231.5,-885.05 238.5,-885.05"/>
<text text-anchor="middle" x="252" y="-898.3" font-family="Times,serif" font-size="14.00">filter*</text>
</g>
<!-- actions -->
<g id="node6" class="node"><title>actions</title>
<path fill="none" stroke="black" d="M219,-749C219,-749 251,-749 251,-749 257,-749 263,-755 263,-761 263,-761 263,-773 263,-773 263,-779 257,-785 251,-785 251,-785 219,-785 219,-785 213,-785 207,-779 207,-773 207,-773 207,-761 207,-761 207,-755 213,-749 219,-749"/>
<text text-anchor="middle" x="235" y="-763.3" font-family="Times,serif" font-size="14.00">actions</text>
</g>
<!-- known_keys&#45;&gt;actions -->
<g id="edge4" class="edge"><title>known_keys&#45;&gt;actions</title>
<path fill="none" stroke="black" d="M235,-838.614C235,-826.24 235,-809.369 235,-795.22"/>
<polygon fill="black" stroke="black" points="238.5,-795.05 235,-785.05 231.5,-795.05 238.5,-795.05"/>
<text text-anchor="middle" x="254.5" y="-808.3" font-family="Times,serif" font-size="14.00">mapd*</text>
</g>
<!-- highlight_actions -->
<g id="node7" class="node"><title>highlight_actions</title>
<path fill="none" stroke="black" d="M84,-638C84,-638 174,-638 174,-638 180,-638 186,-644 186,-650 186,-650 186,-662 186,-662 186,-668 180,-674 174,-674 174,-674 84,-674 84,-674 78,-674 72,-668 72,-662 72,-662 72,-650 72,-650 72,-644 78,-638 84,-638"/>
<text text-anchor="middle" x="129" y="-652.3" font-family="Times,serif" font-size="14.00">highlight_actions</text>
</g>
<!-- actions&#45;&gt;highlight_actions -->
<g id="edge5" class="edge"><title>actions&#45;&gt;highlight_actions</title>
<path fill="none" stroke="black" d="M218.438,-748.969C200.883,-730.917 172.991,-702.236 153.023,-681.703"/>
<polygon fill="black" stroke="black" points="155.277,-679 145.796,-674.271 150.259,-683.881 155.277,-679"/>
<text text-anchor="middle" x="215" y="-718.3" font-family="Times,serif" font-size="14.00">filter*</text>
</g>
<!-- select_actions -->
<g id="node11" class="node"><title>select_actions</title>
<path fill="none" stroke="black" d="M271.5,-347C271.5,-347 342.5,-347 342.5,-347 348.5,-347 354.5,-353 354.5,-359 354.5,-359 354.5,-371 354.5,-371 354.5,-377 348.5,-383 342.5,-383 342.5,-383 271.5,-383 271.5,-383 265.5,-383 259.5,-377 259.5,-371 259.5,-371 259.5,-359 259.5,-359 259.5,-353 265.5,-347 271.5,-347"/>
<text text-anchor="middle" x="307" y="-361.3" font-family="Times,serif" font-size="14.00">select_actions</text>
</g>
<!-- actions&#45;&gt;select_actions -->
<g id="edge9" class="edge"><title>actions&#45;&gt;select_actions</title>
<path fill="none" stroke="black" d="M244.459,-748.832C255.125,-727.829 271,-690.879 271,-657 271,-657 271,-657 271,-475 271,-445.62 282.938,-413.931 293.065,-392.336"/>
<polygon fill="black" stroke="black" points="296.299,-393.69 297.541,-383.168 290.009,-390.619 296.299,-393.69"/>
<text text-anchor="middle" x="288" y="-562.3" font-family="Times,serif" font-size="14.00">filter*</text>
</g>
<!-- offsets -->
<g id="node8" class="node"><title>offsets</title>
<path fill="none" stroke="black" d="M105,-548C105,-548 135,-548 135,-548 141,-548 147,-554 147,-560 147,-560 147,-572 147,-572 147,-578 141,-584 135,-584 135,-584 105,-584 105,-584 99,-584 93,-578 93,-572 93,-572 93,-560 93,-560 93,-554 99,-548 105,-548"/>
<text text-anchor="middle" x="120" y="-562.3" font-family="Times,serif" font-size="14.00">offsets</text>
</g>
<!-- highlight_actions&#45;&gt;offsets -->
<g id="edge6" class="edge"><title>highlight_actions&#45;&gt;offsets</title>
<path fill="none" stroke="black" d="M127.222,-637.614C125.956,-625.24 124.231,-608.369 122.784,-594.22"/>
<polygon fill="black" stroke="black" points="126.243,-593.642 121.744,-584.05 119.279,-594.355 126.243,-593.642"/>
<text text-anchor="middle" x="145.5" y="-607.3" font-family="Times,serif" font-size="14.00">mapd*</text>
</g>
<!-- highlight_indexes -->
<g id="node9" class="node"><title>highlight_indexes</title>
<path fill="none" stroke="black" d="M67.5,-458C67.5,-458 160.5,-458 160.5,-458 166.5,-458 172.5,-464 172.5,-470 172.5,-470 172.5,-482 172.5,-482 172.5,-488 166.5,-494 160.5,-494 160.5,-494 67.5,-494 67.5,-494 61.5,-494 55.5,-488 55.5,-482 55.5,-482 55.5,-470 55.5,-470 55.5,-464 61.5,-458 67.5,-458"/>
<text text-anchor="middle" x="114" y="-472.3" font-family="Times,serif" font-size="14.00">highlight_indexes</text>
</g>
<!-- offsets&#45;&gt;highlight_indexes -->
<g id="edge7" class="edge"><title>offsets&#45;&gt;highlight_indexes</title>
<path fill="none" stroke="black" d="M118.815,-547.614C117.971,-535.24 116.821,-518.369 115.856,-504.22"/>
<polygon fill="black" stroke="black" points="119.335,-503.789 115.163,-494.05 112.351,-504.265 119.335,-503.789"/>
<text text-anchor="middle" x="151" y="-517.3" font-family="Times,serif" font-size="14.00">reductions*</text>
</g>
<!-- wrapping_highlight_indexes -->
<g id="node10" class="node"><title>wrapping_highlight_indexes</title>
<path fill="none" stroke="black" d="M36.5,-347C36.5,-347 189.5,-347 189.5,-347 195.5,-347 201.5,-353 201.5,-359 201.5,-359 201.5,-371 201.5,-371 201.5,-377 195.5,-383 189.5,-383 189.5,-383 36.5,-383 36.5,-383 30.5,-383 24.5,-377 24.5,-371 24.5,-371 24.5,-359 24.5,-359 24.5,-353 30.5,-347 36.5,-347"/>
<text text-anchor="middle" x="113" y="-361.3" font-family="Times,serif" font-size="14.00">wrapping_highlight_indexes</text>
</g>
<!-- highlight_indexes&#45;&gt;wrapping_highlight_indexes -->
<g id="edge8" class="edge"><title>highlight_indexes&#45;&gt;wrapping_highlight_indexes</title>
<path fill="none" stroke="black" d="M113.844,-457.969C113.685,-440.712 113.438,-413.743 113.252,-393.462"/>
<polygon fill="black" stroke="black" points="116.75,-393.239 113.158,-383.271 109.75,-393.303 116.75,-393.239"/>
<text text-anchor="middle" x="133.5" y="-427.3" font-family="Times,serif" font-size="14.00">mapd*</text>
</g>
<!-- select_actions_and_highlight_indexes -->
<g id="node12" class="node"><title>select_actions_and_highlight_indexes</title>
<path fill="none" stroke="black" d="M238,-257C238,-257 444,-257 444,-257 450,-257 456,-263 456,-269 456,-269 456,-281 456,-281 456,-287 450,-293 444,-293 444,-293 238,-293 238,-293 232,-293 226,-287 226,-281 226,-281 226,-269 226,-269 226,-263 232,-257 238,-257"/>
<text text-anchor="middle" x="341" y="-271.3" font-family="Times,serif" font-size="14.00">select_actions_and_highlight_indexes</text>
</g>
<!-- wrapping_highlight_indexes&#45;&gt;select_actions_and_highlight_indexes -->
<g id="edge11" class="edge"><title>wrapping_highlight_indexes&#45;&gt;select_actions_and_highlight_indexes</title>
<path fill="none" stroke="black" d="M157.231,-346.928C194.438,-332.568 247.755,-311.989 287.385,-296.694"/>
<polygon fill="black" stroke="black" points="288.823,-299.89 296.892,-293.024 286.303,-293.36 288.823,-299.89"/>
<text text-anchor="middle" x="269" y="-316.3" font-family="Times,serif" font-size="14.00">concat*</text>
</g>
<!-- select_actions&#45;&gt;select_actions_and_highlight_indexes -->
<g id="edge10" class="edge"><title>select_actions&#45;&gt;select_actions_and_highlight_indexes</title>
<path fill="none" stroke="black" d="M313.717,-346.614C318.592,-333.998 325.273,-316.705 330.804,-302.391"/>
<polygon fill="black" stroke="black" points="334.073,-303.64 334.412,-293.05 327.543,-301.117 334.073,-303.64"/>
<text text-anchor="middle" x="349" y="-316.3" font-family="Times,serif" font-size="14.00">concat*</text>
</g>
<!-- ui_states -->
<g id="node13" class="node"><title>ui_states</title>
<path fill="none" stroke="black" d="M320.5,-167C320.5,-167 361.5,-167 361.5,-167 367.5,-167 373.5,-173 373.5,-179 373.5,-179 373.5,-191 373.5,-191 373.5,-197 367.5,-203 361.5,-203 361.5,-203 320.5,-203 320.5,-203 314.5,-203 308.5,-197 308.5,-191 308.5,-191 308.5,-179 308.5,-179 308.5,-173 314.5,-167 320.5,-167"/>
<text text-anchor="middle" x="341" y="-181.3" font-family="Times,serif" font-size="14.00">ui_states</text>
</g>
<!-- select_actions_and_highlight_indexes&#45;&gt;ui_states -->
<g id="edge12" class="edge"><title>select_actions_and_highlight_indexes&#45;&gt;ui_states</title>
<path fill="none" stroke="black" d="M341,-256.614C341,-244.24 341,-227.369 341,-213.22"/>
<polygon fill="black" stroke="black" points="344.5,-213.05 341,-203.05 337.5,-213.05 344.5,-213.05"/>
<text text-anchor="middle" x="374" y="-226.3" font-family="Times,serif" font-size="14.00">reductions*</text>
</g>
<!-- rendered_uis -->
<g id="node14" class="node"><title>rendered_uis</title>
<path fill="none" stroke="black" d="M308.5,-77C308.5,-77 373.5,-77 373.5,-77 379.5,-77 385.5,-83 385.5,-89 385.5,-89 385.5,-101 385.5,-101 385.5,-107 379.5,-113 373.5,-113 373.5,-113 308.5,-113 308.5,-113 302.5,-113 296.5,-107 296.5,-101 296.5,-101 296.5,-89 296.5,-89 296.5,-83 302.5,-77 308.5,-77"/>
<text text-anchor="middle" x="341" y="-91.3" font-family="Times,serif" font-size="14.00">rendered_uis</text>
</g>
<!-- ui_states&#45;&gt;rendered_uis -->
<g id="edge13" class="edge"><title>ui_states&#45;&gt;rendered_uis</title>
<path fill="none" stroke="black" d="M341,-166.614C341,-154.24 341,-137.369 341,-123.22"/>
<polygon fill="black" stroke="black" points="344.5,-123.05 341,-113.05 337.5,-123.05 344.5,-123.05"/>
<text text-anchor="middle" x="360.5" y="-136.3" font-family="Times,serif" font-size="14.00">mapd*</text>
</g>
<!-- rendered_uis&#45;&gt;pre_element -->
<g id="edge14" class="edge"><title>rendered_uis&#45;&gt;pre_element</title>
<path fill="none" stroke="black" d="M341,-76.8369C341,-68.0575 341,-57.1626 341,-47.2675"/>
<polygon fill="black" stroke="black" points="344.5,-47.07 341,-37.07 337.5,-47.07 344.5,-47.07"/>
</g>
</g>
</svg>
